{"asset": {"generator": "Oculus::FBX2glTF2.0", "version": "2.0"}, "buffers": [{"uri": "buffer.bin", "byteLength": 541272, "name": "buffer"}], "bufferViews": [{"target": 34963, "name": "0_TEST_JOURNEY_terrain_a_01orig_INDICES_BufferView", "buffer": 0, "byteLength": 118992, "byteOffset": 0}, {"target": 34962, "name": "0_TEST_JOURNEY_terrain_a_01orig_POSITION_BufferView", "buffer": 0, "byteLength": 126684, "byteOffset": 118992}, {"target": 34962, "name": "0_TEST_JOURNEY_terrain_a_01orig_NORMAL_BufferView", "buffer": 0, "byteLength": 126684, "byteOffset": 245676}, {"target": 34962, "name": "0_TEST_JOURNEY_terrain_a_01orig_TEXCOORD_0_BufferView", "buffer": 0, "byteLength": 84456, "byteOffset": 372360}, {"target": 34962, "name": "0_TEST_JOURNEY_terrain_a_01orig_TEXCOORD_1_BufferView", "buffer": 0, "byteLength": 84456, "byteOffset": 456816}], "accessors": [{"name": "0_TEST_JOURNEY_terrain_a_01orig_INDICES_Accessor", "bufferView": 0, "byteOffset": 0, "byteStride": 2, "componentType": 5123, "count": 59496, "type": "SCALAR"}, {"name": "0_TEST_JOURNEY_terrain_a_01orig_POSITION_Accessor", "bufferView": 1, "byteOffset": 0, "byteStride": 12, "componentType": 5126, "count": 10557, "type": "VEC3", "min": [-1030.19580078125, -182.1775360107422, -1178.859375], "max": [1234.0325927734375, 164.1574249267578, 1128.6478271484375]}, {"name": "0_TEST_JOURNEY_terrain_a_01orig_NORMAL_Accessor", "bufferView": 2, "byteOffset": 0, "byteStride": 12, "componentType": 5126, "count": 10557, "type": "VEC3"}, {"name": "0_TEST_JOURNEY_terrain_a_01orig_TEXCOORD_0_Accessor", "bufferView": 3, "byteOffset": 0, "byteStride": 8, "componentType": 5126, "count": 10557, "type": "VEC2"}, {"name": "0_TEST_JOURNEY_terrain_a_01orig_TEXCOORD_1_Accessor", "bufferView": 4, "byteOffset": 0, "byteStride": 8, "componentType": 5126, "count": 10557, "type": "VEC2"}], "images": [{"name": "TEST-JOURNEY_a_terrain_a_01orig", "uri": "TEST-JOURNEY_a_terrain_a_01orig.png"}], "textures": [{"name": "TEST-JOURNEY_a_terrain_a_01orig", "source": 0}], "materials": [{"name": "TEST_JOURNEY_a_terrain_a_01orig_1Material", "pbrMetallicRoughness": {"baseColorTexture": {"index": 0, "texCoord": 0}}, "alphaMode": "OPAQUE", "extensions": {"oculus_write_alpha": true}}], "meshes": [{"name": "TEST_JOURNEY_terrain_a_01orig", "primitives": [{"attributes": {"POSITION": 1, "NORMAL": 2, "TEXCOORD_0": 3, "TEXCOORD_1": 4}, "indices": 0, "material": 0, "mode": 4}]}], "skins": [], "animations": [], "cameras": [], "nodes": [{"name": "RootNode", "translation": [0, 0, 0], "rotation": [0, 0, 0, 1], "scale": [1, 1, 1], "children": [1]}, {"name": "TEST_JOURNEY_terrain_a_01orig", "translation": [0, 0, 0], "rotation": [0, 0, 0, 1], "scale": [0.011099999770522118, 0.011099999770522118, 0.011099999770522118], "mesh": 0}], "scenes": [{"nodes": [0], "name": "Root Scene", "extensions": {"oculus_tags": []}}], "scene": 0}