# Blender 5.0.1
# www.blender.org
mtllib curved_screen.mtl
o Plane
v -1.909859 -1.000000 0.511745
v 1.909859 -1.000000 0.511745
v -1.909859 1.000000 0.511745
v 1.909859 1.000000 0.511745
v -1.909859 0.904762 0.511745
v -1.909859 0.809524 0.511745
v -1.909859 0.714286 0.511745
v -1.909859 0.619048 0.511745
v -1.909859 0.523810 0.511745
v -1.909859 0.428571 0.511745
v -1.909859 0.333333 0.511745
v -1.909859 0.238095 0.511745
v -1.909859 0.142857 0.511745
v -1.909859 0.047619 0.511745
v -1.909859 -0.047619 0.511745
v -1.909859 -0.142857 0.511745
v -1.909859 -0.238095 0.511745
v -1.909859 -0.333333 0.511745
v -1.909859 -0.428571 0.511745
v -1.909859 -0.523809 0.511745
v -1.909859 -0.619048 0.511745
v -1.909859 -0.714286 0.511745
v -1.909859 -0.809524 0.511745
v -1.909859 -0.904762 0.511745
v -1.742596 -1.000000 0.420659
v -1.571001 -1.000000 0.338023
v -1.395500 -1.000000 0.264043
v -1.216529 -1.000000 0.198903
v -1.034534 -1.000000 0.142765
v -0.849967 -1.000000 0.095768
v -0.663287 -1.000000 0.058030
v -0.474958 -1.000000 0.029644
v -0.285448 -1.000000 0.010681
v -0.095228 -1.000000 0.001187
v 0.095228 -1.000000 0.001187
v 0.285448 -1.000000 0.010681
v 0.474958 -1.000000 0.029644
v 0.663287 -1.000000 0.058030
v 0.849967 -1.000000 0.095768
v 1.034534 -1.000000 0.142765
v 1.216529 -1.000000 0.198903
v 1.395500 -1.000000 0.264043
v 1.571001 -1.000000 0.338023
v 1.742596 -1.000000 0.420659
v 1.909859 -0.904762 0.511745
v 1.909859 -0.809524 0.511745
v 1.909859 -0.714286 0.511745
v 1.909859 -0.619048 0.511745
v 1.909859 -0.523810 0.511745
v 1.909859 -0.428571 0.511745
v 1.909859 -0.333333 0.511745
v 1.909859 -0.238095 0.511745
v 1.909859 -0.142857 0.511745
v 1.909859 -0.047619 0.511745
v 1.909859 0.047619 0.511745
v 1.909859 0.142857 0.511745
v 1.909859 0.238095 0.511745
v 1.909859 0.333333 0.511745
v 1.909859 0.428571 0.511745
v 1.909859 0.523809 0.511745
v 1.909859 0.619048 0.511745
v 1.909859 0.714286 0.511745
v 1.909859 0.809524 0.511745
v 1.909859 0.904762 0.511745
v 1.742596 1.000000 0.420659
v 1.571001 1.000000 0.338023
v 1.395500 1.000000 0.264043
v 1.216529 1.000000 0.198903
v 1.034534 1.000000 0.142765
v 0.849967 1.000000 0.095768
v 0.663287 1.000000 0.058030
v 0.474958 1.000000 0.029644
v 0.285448 1.000000 0.010681
v 0.095228 1.000000 0.001187
v -0.095228 1.000000 0.001187
v -0.285448 1.000000 0.010681
v -0.474958 1.000000 0.029644
v -0.663287 1.000000 0.058030
v -0.849967 1.000000 0.095768
v -1.034534 1.000000 0.142765
v -1.216529 1.000000 0.198903
v -1.395500 1.000000 0.264043
v -1.571001 1.000000 0.338023
v -1.742596 1.000000 0.420659
v -1.742596 -0.904762 0.420659
v -1.742596 -0.809524 0.420659
v -1.742596 -0.714286 0.420659
v -1.742596 -0.619048 0.420659
v -1.742596 -0.523810 0.420659
v -1.742596 -0.428571 0.420659
v -1.742596 -0.333333 0.420659
v -1.742596 -0.238095 0.420659
v -1.742596 -0.142857 0.420659
v -1.742596 -0.047619 0.420659
v -1.742596 0.047619 0.420659
v -1.742596 0.142857 0.420659
v -1.742596 0.238095 0.420659
v -1.742596 0.333333 0.420659
v -1.742596 0.428571 0.420659
v -1.742596 0.523809 0.420659
v -1.742596 0.619048 0.420659
v -1.742596 0.714286 0.420659
v -1.742596 0.809524 0.420659
v -1.742596 0.904762 0.420659
v -1.571001 -0.904762 0.338023
v -1.571001 -0.809524 0.338023
v -1.571001 -0.714286 0.338023
v -1.571001 -0.619048 0.338023
v -1.571001 -0.523810 0.338023
v -1.571001 -0.428571 0.338023
v -1.571001 -0.333333 0.338023
v -1.571001 -0.238095 0.338023
v -1.571001 -0.142857 0.338023
v -1.571001 -0.047619 0.338023
v -1.571001 0.047619 0.338023
v -1.571001 0.142857 0.338023
v -1.571001 0.238095 0.338023
v -1.571001 0.333333 0.338023
v -1.571001 0.428571 0.338023
v -1.571001 0.523809 0.338023
v -1.571001 0.619048 0.338023
v -1.571001 0.714286 0.338023
v -1.571001 0.809524 0.338023
v -1.571001 0.904762 0.338023
v -1.395500 -0.904762 0.264043
v -1.395500 -0.809524 0.264043
v -1.395500 -0.714286 0.264043
v -1.395500 -0.619048 0.264043
v -1.395500 -0.523810 0.264043
v -1.395500 -0.428571 0.264043
v -1.395500 -0.333333 0.264043
v -1.395500 -0.238095 0.264043
v -1.395500 -0.142857 0.264043
v -1.395500 -0.047619 0.264043
v -1.395500 0.047619 0.264043
v -1.395500 0.142857 0.264043
v -1.395500 0.238095 0.264043
v -1.395500 0.333333 0.264043
v -1.395500 0.428571 0.264043
v -1.395500 0.523809 0.264043
v -1.395500 0.619048 0.264043
v -1.395500 0.714286 0.264043
v -1.395500 0.809524 0.264043
v -1.395500 0.904762 0.264043
v -1.216529 -0.904762 0.198903
v -1.216529 -0.809524 0.198903
v -1.216529 -0.714286 0.198903
v -1.216529 -0.619048 0.198903
v -1.216529 -0.523810 0.198903
v -1.216529 -0.428571 0.198903
v -1.216529 -0.333333 0.198903
v -1.216529 -0.238095 0.198903
v -1.216529 -0.142857 0.198903
v -1.216529 -0.047619 0.198903
v -1.216529 0.047619 0.198903
v -1.216529 0.142857 0.198903
v -1.216529 0.238095 0.198903
v -1.216529 0.333333 0.198903
v -1.216529 0.428571 0.198903
v -1.216529 0.523809 0.198903
v -1.216529 0.619048 0.198903
v -1.216529 0.714286 0.198903
v -1.216529 0.809524 0.198903
v -1.216529 0.904762 0.198903
v -1.034534 -0.904762 0.142765
v -1.034534 -0.809524 0.142765
v -1.034534 -0.714286 0.142765
v -1.034534 -0.619048 0.142765
v -1.034534 -0.523810 0.142765
v -1.034534 -0.428571 0.142765
v -1.034534 -0.333333 0.142765
v -1.034534 -0.238095 0.142765
v -1.034534 -0.142857 0.142765
v -1.034534 -0.047619 0.142765
v -1.034534 0.047619 0.142765
v -1.034534 0.142857 0.142765
v -1.034534 0.238095 0.142765
v -1.034534 0.333333 0.142765
v -1.034534 0.428571 0.142765
v -1.034534 0.523809 0.142765
v -1.034534 0.619048 0.142765
v -1.034534 0.714286 0.142765
v -1.034534 0.809524 0.142765
v -1.034534 0.904762 0.142765
v -0.849967 -0.904762 0.095768
v -0.849967 -0.809524 0.095768
v -0.849967 -0.714286 0.095768
v -0.849967 -0.619048 0.095768
v -0.849967 -0.523810 0.095768
v -0.849967 -0.428571 0.095768
v -0.849967 -0.333333 0.095768
v -0.849967 -0.238095 0.095768
v -0.849967 -0.142857 0.095768
v -0.849967 -0.047619 0.095768
v -0.849967 0.047619 0.095768
v -0.849967 0.142857 0.095768
v -0.849967 0.238095 0.095768
v -0.849967 0.333333 0.095768
v -0.849967 0.428571 0.095768
v -0.849967 0.523809 0.095768
v -0.849967 0.619048 0.095768
v -0.849967 0.714286 0.095768
v -0.849967 0.809524 0.095768
v -0.849967 0.904762 0.095768
v -0.663287 -0.904762 0.058030
v -0.663287 -0.809524 0.058030
v -0.663287 -0.714286 0.058030
v -0.663287 -0.619048 0.058030
v -0.663287 -0.523810 0.058030
v -0.663287 -0.428571 0.058030
v -0.663287 -0.333333 0.058030
v -0.663287 -0.238095 0.058030
v -0.663287 -0.142857 0.058030
v -0.663287 -0.047619 0.058030
v -0.663287 0.047619 0.058030
v -0.663287 0.142857 0.058030
v -0.663287 0.238095 0.058030
v -0.663287 0.333333 0.058030
v -0.663287 0.428571 0.058030
v -0.663287 0.523809 0.058030
v -0.663287 0.619048 0.058030
v -0.663287 0.714286 0.058030
v -0.663287 0.809524 0.058030
v -0.663287 0.904762 0.058030
v -0.474958 -0.904762 0.029644
v -0.474958 -0.809524 0.029644
v -0.474958 -0.714286 0.029644
v -0.474958 -0.619048 0.029644
v -0.474958 -0.523810 0.029644
v -0.474958 -0.428571 0.029644
v -0.474958 -0.333333 0.029644
v -0.474958 -0.238095 0.029644
v -0.474958 -0.142857 0.029644
v -0.474958 -0.047619 0.029644
v -0.474958 0.047619 0.029644
v -0.474958 0.142857 0.029644
v -0.474958 0.238095 0.029644
v -0.474958 0.333333 0.029644
v -0.474958 0.428571 0.029644
v -0.474958 0.523809 0.029644
v -0.474958 0.619048 0.029644
v -0.474958 0.714286 0.029644
v -0.474958 0.809524 0.029644
v -0.474958 0.904762 0.029644
v -0.285448 -0.904762 0.010681
v -0.285448 -0.809524 0.010681
v -0.285448 -0.714286 0.010681
v -0.285448 -0.619048 0.010681
v -0.285448 -0.523810 0.010681
v -0.285448 -0.428571 0.010681
v -0.285448 -0.333333 0.010681
v -0.285448 -0.238095 0.010681
v -0.285448 -0.142857 0.010681
v -0.285448 -0.047619 0.010681
v -0.285448 0.047619 0.010681
v -0.285448 0.142857 0.010681
v -0.285448 0.238095 0.010681
v -0.285448 0.333333 0.010681
v -0.285448 0.428571 0.010681
v -0.285448 0.523809 0.010681
v -0.285448 0.619048 0.010681
v -0.285448 0.714286 0.010681
v -0.285448 0.809524 0.010681
v -0.285448 0.904762 0.010681
v -0.095228 -0.904762 0.001187
v -0.095228 -0.809524 0.001187
v -0.095228 -0.714286 0.001187
v -0.095228 -0.619048 0.001187
v -0.095228 -0.523810 0.001187
v -0.095228 -0.428571 0.001187
v -0.095228 -0.333333 0.001187
v -0.095228 -0.238095 0.001187
v -0.095228 -0.142857 0.001187
v -0.095228 -0.047619 0.001187
v -0.095228 0.047619 0.001187
v -0.095228 0.142857 0.001187
v -0.095228 0.238095 0.001187
v -0.095228 0.333333 0.001187
v -0.095228 0.428571 0.001187
v -0.095228 0.523809 0.001187
v -0.095228 0.619048 0.001187
v -0.095228 0.714286 0.001187
v -0.095228 0.809524 0.001187
v -0.095228 0.904762 0.001187
v 0.095228 -0.904762 0.001187
v 0.095228 -0.809524 0.001187
v 0.095228 -0.714286 0.001187
v 0.095228 -0.619048 0.001187
v 0.095228 -0.523810 0.001187
v 0.095228 -0.428571 0.001187
v 0.095228 -0.333333 0.001187
v 0.095228 -0.238095 0.001187
v 0.095228 -0.142857 0.001187
v 0.095228 -0.047619 0.001187
v 0.095228 0.047619 0.001187
v 0.095228 0.142857 0.001187
v 0.095228 0.238095 0.001187
v 0.095228 0.333333 0.001187
v 0.095228 0.428571 0.001187
v 0.095228 0.523809 0.001187
v 0.095228 0.619048 0.001187
v 0.095228 0.714286 0.001187
v 0.095228 0.809524 0.001187
v 0.095228 0.904762 0.001187
v 0.285448 -0.904762 0.010681
v 0.285448 -0.809524 0.010681
v 0.285448 -0.714286 0.010681
v 0.285448 -0.619048 0.010681
v 0.285448 -0.523810 0.010681
v 0.285448 -0.428571 0.010681
v 0.285448 -0.333333 0.010681
v 0.285448 -0.238095 0.010681
v 0.285448 -0.142857 0.010681
v 0.285448 -0.047619 0.010681
v 0.285448 0.047619 0.010681
v 0.285448 0.142857 0.010681
v 0.285448 0.238095 0.010681
v 0.285448 0.333333 0.010681
v 0.285448 0.428571 0.010681
v 0.285448 0.523809 0.010681
v 0.285448 0.619048 0.010681
v 0.285448 0.714286 0.010681
v 0.285448 0.809524 0.010681
v 0.285448 0.904762 0.010681
v 0.474958 -0.904762 0.029644
v 0.474958 -0.809524 0.029644
v 0.474958 -0.714286 0.029644
v 0.474958 -0.619048 0.029644
v 0.474958 -0.523810 0.029644
v 0.474958 -0.428571 0.029644
v 0.474958 -0.333333 0.029644
v 0.474958 -0.238095 0.029644
v 0.474958 -0.142857 0.029644
v 0.474958 -0.047619 0.029644
v 0.474958 0.047619 0.029644
v 0.474958 0.142857 0.029644
v 0.474958 0.238095 0.029644
v 0.474958 0.333333 0.029644
v 0.474958 0.428571 0.029644
v 0.474958 0.523809 0.029644
v 0.474958 0.619048 0.029644
v 0.474958 0.714286 0.029644
v 0.474958 0.809524 0.029644
v 0.474958 0.904762 0.029644
v 0.663287 -0.904762 0.058030
v 0.663287 -0.809524 0.058030
v 0.663287 -0.714286 0.058030
v 0.663287 -0.619048 0.058030
v 0.663287 -0.523810 0.058030
v 0.663287 -0.428571 0.058030
v 0.663287 -0.333333 0.058030
v 0.663287 -0.238095 0.058030
v 0.663287 -0.142857 0.058030
v 0.663287 -0.047619 0.058030
v 0.663287 0.047619 0.058030
v 0.663287 0.142857 0.058030
v 0.663287 0.238095 0.058030
v 0.663287 0.333333 0.058030
v 0.663287 0.428571 0.058030
v 0.663287 0.523809 0.058030
v 0.663287 0.619048 0.058030
v 0.663287 0.714286 0.058030
v 0.663287 0.809524 0.058030
v 0.663287 0.904762 0.058030
v 0.849967 -0.904762 0.095768
v 0.849967 -0.809524 0.095768
v 0.849967 -0.714286 0.095768
v 0.849967 -0.619048 0.095768
v 0.849967 -0.523810 0.095768
v 0.849967 -0.428571 0.095768
v 0.849967 -0.333333 0.095768
v 0.849967 -0.238095 0.095768
v 0.849967 -0.142857 0.095768
v 0.849967 -0.047619 0.095768
v 0.849967 0.047619 0.095768
v 0.849967 0.142857 0.095768
v 0.849967 0.238095 0.095768
v 0.849967 0.333333 0.095768
v 0.849967 0.428571 0.095768
v 0.849967 0.523809 0.095768
v 0.849967 0.619048 0.095768
v 0.849967 0.714286 0.095768
v 0.849967 0.809524 0.095768
v 0.849967 0.904762 0.095768
v 1.034534 -0.904762 0.142765
v 1.034534 -0.809524 0.142765
v 1.034534 -0.714286 0.142765
v 1.034534 -0.619048 0.142765
v 1.034534 -0.523810 0.142765
v 1.034534 -0.428571 0.142765
v 1.034534 -0.333333 0.142765
v 1.034534 -0.238095 0.142765
v 1.034534 -0.142857 0.142765
v 1.034534 -0.047619 0.142765
v 1.034534 0.047619 0.142765
v 1.034534 0.142857 0.142765
v 1.034534 0.238095 0.142765
v 1.034534 0.333333 0.142765
v 1.034534 0.428571 0.142765
v 1.034534 0.523809 0.142765
v 1.034534 0.619048 0.142765
v 1.034534 0.714286 0.142765
v 1.034534 0.809524 0.142765
v 1.034534 0.904762 0.142765
v 1.216529 -0.904762 0.198903
v 1.216529 -0.809524 0.198903
v 1.216529 -0.714286 0.198903
v 1.216529 -0.619048 0.198903
v 1.216529 -0.523810 0.198903
v 1.216529 -0.428571 0.198903
v 1.216529 -0.333333 0.198903
v 1.216529 -0.238095 0.198903
v 1.216529 -0.142857 0.198903
v 1.216529 -0.047619 0.198903
v 1.216529 0.047619 0.198903
v 1.216529 0.142857 0.198903
v 1.216529 0.238095 0.198903
v 1.216529 0.333333 0.198903
v 1.216529 0.428571 0.198903
v 1.216529 0.523809 0.198903
v 1.216529 0.619048 0.198903
v 1.216529 0.714286 0.198903
v 1.216529 0.809524 0.198903
v 1.216529 0.904762 0.198903
v 1.395500 -0.904762 0.264043
v 1.395500 -0.809524 0.264043
v 1.395500 -0.714286 0.264043
v 1.395500 -0.619048 0.264043
v 1.395500 -0.523810 0.264043
v 1.395500 -0.428571 0.264043
v 1.395500 -0.333333 0.264043
v 1.395500 -0.238095 0.264043
v 1.395500 -0.142857 0.264043
v 1.395500 -0.047619 0.264043
v 1.395500 0.047619 0.264043
v 1.395500 0.142857 0.264043
v 1.395500 0.238095 0.264043
v 1.395500 0.333333 0.264043
v 1.395500 0.428571 0.264043
v 1.395500 0.523809 0.264043
v 1.395500 0.619048 0.264043
v 1.395500 0.714286 0.264043
v 1.395500 0.809524 0.264043
v 1.395500 0.904762 0.264043
v 1.571001 -0.904762 0.338023
v 1.571001 -0.809524 0.338023
v 1.571001 -0.714286 0.338023
v 1.571001 -0.619048 0.338023
v 1.571001 -0.523810 0.338023
v 1.571001 -0.428571 0.338023
v 1.571001 -0.333333 0.338023
v 1.571001 -0.238095 0.338023
v 1.571001 -0.142857 0.338023
v 1.571001 -0.047619 0.338023
v 1.571001 0.047619 0.338023
v 1.571001 0.142857 0.338023
v 1.571001 0.238095 0.338023
v 1.571001 0.333333 0.338023
v 1.571001 0.428571 0.338023
v 1.571001 0.523809 0.338023
v 1.571001 0.619048 0.338023
v 1.571001 0.714286 0.338023
v 1.571001 0.809524 0.338023
v 1.571001 0.904762 0.338023
v 1.742596 -0.904762 0.420659
v 1.742596 -0.809524 0.420659
v 1.742596 -0.714286 0.420659
v 1.742596 -0.619048 0.420659
v 1.742596 -0.523810 0.420659
v 1.742596 -0.428571 0.420659
v 1.742596 -0.333333 0.420659
v 1.742596 -0.238095 0.420659
v 1.742596 -0.142857 0.420659
v 1.742596 -0.047619 0.420659
v 1.742596 0.047619 0.420659
v 1.742596 0.142857 0.420659
v 1.742596 0.238095 0.420659
v 1.742596 0.333333 0.420659
v 1.742596 0.428571 0.420659
v 1.742596 0.523809 0.420659
v 1.742596 0.619048 0.420659
v 1.742596 0.714286 0.420659
v 1.742596 0.809524 0.420659
v 1.742596 0.904762 0.420659
vn -0.4783 -0.0000 0.8782
vn 0.4783 -0.0000 0.8782
vn 0.4339 -0.0000 0.9010
vn 0.3884 -0.0000 0.9215
vn 0.3420 -0.0000 0.9397
vn 0.2948 -0.0000 0.9556
vn 0.2468 -0.0000 0.9691
vn 0.1981 -0.0000 0.9802
vn 0.1490 -0.0000 0.9888
vn 0.0996 -0.0000 0.9950
vn 0.0498 -0.0000 0.9988
vn -0.0000 -0.0000 1.0000
vn -0.0498 -0.0000 0.9988
vn -0.0996 -0.0000 0.9950
vn -0.1490 -0.0000 0.9888
vn -0.1981 -0.0000 0.9802
vn -0.2468 -0.0000 0.9691
vn -0.2948 -0.0000 0.9556
vn -0.3420 -0.0000 0.9397
vn -0.3884 -0.0000 0.9215
vn -0.4339 -0.0000 0.9010
vt 0.952381 0.952381
vt 1.000000 0.952381
vt 1.000000 1.000000
vt 0.952381 1.000000
vt 0.000000 0.952381
vt 0.047619 0.952381
vt 0.047619 1.000000
vt 0.000000 1.000000
vt 0.095238 0.952381
vt 0.095238 1.000000
vt 0.142857 0.952381
vt 0.142857 1.000000
vt 0.190476 0.952381
vt 0.190476 1.000000
vt 0.238095 0.952381
vt 0.238095 1.000000
vt 0.285714 0.952381
vt 0.285714 1.000000
vt 0.333333 0.952381
vt 0.333333 1.000000
vt 0.380952 0.952381
vt 0.380952 1.000000
vt 0.428571 0.952381
vt 0.428571 1.000000
vt 0.476190 0.952381
vt 0.476190 1.000000
vt 0.523810 0.952381
vt 0.523810 1.000000
vt 0.571429 0.952381
vt 0.571429 1.000000
vt 0.619048 0.952381
vt 0.619048 1.000000
vt 0.666667 0.952381
vt 0.666667 1.000000
vt 0.714286 0.952381
vt 0.714286 1.000000
vt 0.761905 0.952381
vt 0.761905 1.000000
vt 0.809524 0.952381
vt 0.809524 1.000000
vt 0.857143 0.952381
vt 0.857143 1.000000
vt 0.904762 0.952381
vt 0.904762 1.000000
vt 0.000000 0.000000
vt 0.047619 0.000000
vt 0.047619 0.047619
vt 0.000000 0.047619
vt 0.047619 0.095238
vt 0.000000 0.095238
vt 0.047619 0.142857
vt 0.000000 0.142857
vt 0.047619 0.190476
vt 0.000000 0.190476
vt 0.047619 0.238095
vt 0.000000 0.238095
vt 0.047619 0.285714
vt 0.000000 0.285714
vt 0.047619 0.333333
vt 0.000000 0.333333
vt 0.047619 0.380952
vt 0.000000 0.380952
vt 0.047619 0.428571
vt 0.000000 0.428571
vt 0.047619 0.476190
vt 0.000000 0.476190
vt 0.047619 0.523810
vt 0.000000 0.523810
vt 0.047619 0.571429
vt 0.000000 0.571429
vt 0.047619 0.619048
vt 0.000000 0.619048
vt 0.047619 0.666667
vt 0.000000 0.666667
vt 0.047619 0.714286
vt 0.000000 0.714286
vt 0.047619 0.761905
vt 0.000000 0.761905
vt 0.047619 0.809524
vt 0.000000 0.809524
vt 0.047619 0.857143
vt 0.000000 0.857143
vt 0.047619 0.904762
vt 0.000000 0.904762
vt 0.095238 0.000000
vt 0.095238 0.047619
vt 0.095238 0.095238
vt 0.095238 0.142857
vt 0.095238 0.190476
vt 0.095238 0.238095
vt 0.095238 0.285714
vt 0.095238 0.333333
vt 0.095238 0.380952
vt 0.095238 0.428571
vt 0.095238 0.476190
vt 0.095238 0.523810
vt 0.095238 0.571429
vt 0.095238 0.619048
vt 0.095238 0.666667
vt 0.095238 0.714286
vt 0.095238 0.761905
vt 0.095238 0.809524
vt 0.095238 0.857143
vt 0.095238 0.904762
vt 0.142857 0.000000
vt 0.142857 0.047619
vt 0.142857 0.095238
vt 0.142857 0.142857
vt 0.142857 0.190476
vt 0.142857 0.238095
vt 0.142857 0.285714
vt 0.142857 0.333333
vt 0.142857 0.380952
vt 0.142857 0.428571
vt 0.142857 0.476190
vt 0.142857 0.523810
vt 0.142857 0.571429
vt 0.142857 0.619048
vt 0.142857 0.666667
vt 0.142857 0.714286
vt 0.142857 0.761905
vt 0.142857 0.809524
vt 0.142857 0.857143
vt 0.142857 0.904762
vt 0.190476 0.000000
vt 0.190476 0.047619
vt 0.190476 0.095238
vt 0.190476 0.142857
vt 0.190476 0.190476
vt 0.190476 0.238095
vt 0.190476 0.285714
vt 0.190476 0.333333
vt 0.190476 0.380952
vt 0.190476 0.428571
vt 0.190476 0.476190
vt 0.190476 0.523810
vt 0.190476 0.571429
vt 0.190476 0.619048
vt 0.190476 0.666667
vt 0.190476 0.714286
vt 0.190476 0.761905
vt 0.190476 0.809524
vt 0.190476 0.857143
vt 0.190476 0.904762
vt 0.238095 0.000000
vt 0.238095 0.047619
vt 0.238095 0.095238
vt 0.238095 0.142857
vt 0.238095 0.190476
vt 0.238095 0.238095
vt 0.238095 0.285714
vt 0.238095 0.333333
vt 0.238095 0.380952
vt 0.238095 0.428571
vt 0.238095 0.476190
vt 0.238095 0.523810
vt 0.238095 0.571429
vt 0.238095 0.619048
vt 0.238095 0.666667
vt 0.238095 0.714286
vt 0.238095 0.761905
vt 0.238095 0.809524
vt 0.238095 0.857143
vt 0.238095 0.904762
vt 0.285714 0.000000
vt 0.285714 0.047619
vt 0.285714 0.095238
vt 0.285714 0.142857
vt 0.285714 0.190476
vt 0.285714 0.238095
vt 0.285714 0.285714
vt 0.285714 0.333333
vt 0.285714 0.380952
vt 0.285714 0.428571
vt 0.285714 0.476190
vt 0.285714 0.523810
vt 0.285714 0.571429
vt 0.285714 0.619048
vt 0.285714 0.666667
vt 0.285714 0.714286
vt 0.285714 0.761905
vt 0.285714 0.809524
vt 0.285714 0.857143
vt 0.285714 0.904762
vt 0.333333 0.000000
vt 0.333333 0.047619
vt 0.333333 0.095238
vt 0.333333 0.142857
vt 0.333333 0.190476
vt 0.333333 0.238095
vt 0.333333 0.285714
vt 0.333333 0.333333
vt 0.333333 0.380952
vt 0.333333 0.428571
vt 0.333333 0.476190
vt 0.333333 0.523810
vt 0.333333 0.571429
vt 0.333333 0.619048
vt 0.333333 0.666667
vt 0.333333 0.714286
vt 0.333333 0.761905
vt 0.333333 0.809524
vt 0.333333 0.857143
vt 0.333333 0.904762
vt 0.380952 0.000000
vt 0.380952 0.047619
vt 0.380952 0.095238
vt 0.380952 0.142857
vt 0.380952 0.190476
vt 0.380952 0.238095
vt 0.380952 0.285714
vt 0.380952 0.333333
vt 0.380952 0.380952
vt 0.380952 0.428571
vt 0.380952 0.476190
vt 0.380952 0.523810
vt 0.380952 0.571429
vt 0.380952 0.619048
vt 0.380952 0.666667
vt 0.380952 0.714286
vt 0.380952 0.761905
vt 0.380952 0.809524
vt 0.380952 0.857143
vt 0.380952 0.904762
vt 0.428571 0.000000
vt 0.428571 0.047619
vt 0.428571 0.095238
vt 0.428571 0.142857
vt 0.428571 0.190476
vt 0.428571 0.238095
vt 0.428571 0.285714
vt 0.428571 0.333333
vt 0.428571 0.380952
vt 0.428571 0.428571
vt 0.428571 0.476190
vt 0.428571 0.523810
vt 0.428571 0.571429
vt 0.428571 0.619048
vt 0.428571 0.666667
vt 0.428571 0.714286
vt 0.428571 0.761905
vt 0.428571 0.809524
vt 0.428571 0.857143
vt 0.428571 0.904762
vt 0.476190 0.000000
vt 0.476191 0.047619
vt 0.476191 0.095238
vt 0.476191 0.142857
vt 0.476190 0.190476
vt 0.476190 0.238095
vt 0.476190 0.285714
vt 0.476190 0.333333
vt 0.476190 0.380952
vt 0.476190 0.428571
vt 0.476190 0.476190
vt 0.476190 0.523810
vt 0.476190 0.571429
vt 0.476190 0.619048
vt 0.476190 0.666667
vt 0.476190 0.714286
vt 0.476190 0.761905
vt 0.476190 0.809524
vt 0.476190 0.857143
vt 0.476190 0.904762
vt 0.523810 0.000000
vt 0.523810 0.047619
vt 0.523810 0.095238
vt 0.523810 0.142857
vt 0.523810 0.190476
vt 0.523810 0.238095
vt 0.523810 0.285714
vt 0.523810 0.333333
vt 0.523810 0.380952
vt 0.523810 0.428571
vt 0.523810 0.476190
vt 0.523810 0.523810
vt 0.523810 0.571429
vt 0.523810 0.619048
vt 0.523810 0.666667
vt 0.523810 0.714286
vt 0.523810 0.761905
vt 0.523810 0.809524
vt 0.523810 0.857143
vt 0.523810 0.904762
vt 0.571429 0.000000
vt 0.571429 0.047619
vt 0.571429 0.095238
vt 0.571429 0.142857
vt 0.571429 0.190476
vt 0.571429 0.238095
vt 0.571429 0.285714
vt 0.571429 0.333333
vt 0.571429 0.380952
vt 0.571429 0.428571
vt 0.571429 0.476190
vt 0.571429 0.523810
vt 0.571429 0.571429
vt 0.571429 0.619048
vt 0.571429 0.666667
vt 0.571429 0.714286
vt 0.571429 0.761905
vt 0.571429 0.809524
vt 0.571429 0.857143
vt 0.571429 0.904762
vt 0.619048 0.000000
vt 0.619048 0.047619
vt 0.619048 0.095238
vt 0.619048 0.142857
vt 0.619048 0.190476
vt 0.619048 0.238095
vt 0.619048 0.285714
vt 0.619048 0.333333
vt 0.619048 0.380952
vt 0.619048 0.428571
vt 0.619048 0.476190
vt 0.619048 0.523810
vt 0.619048 0.571429
vt 0.619048 0.619048
vt 0.619048 0.666667
vt 0.619048 0.714286
vt 0.619048 0.761905
vt 0.619048 0.809524
vt 0.619048 0.857143
vt 0.619048 0.904762
vt 0.666667 0.000000
vt 0.666667 0.047619
vt 0.666667 0.095238
vt 0.666667 0.142857
vt 0.666667 0.190476
vt 0.666667 0.238095
vt 0.666667 0.285714
vt 0.666667 0.333333
vt 0.666667 0.380952
vt 0.666667 0.428571
vt 0.666667 0.476190
vt 0.666667 0.523810
vt 0.666667 0.571429
vt 0.666667 0.619048
vt 0.666667 0.666667
vt 0.666667 0.714286
vt 0.666667 0.761905
vt 0.666667 0.809524
vt 0.666667 0.857143
vt 0.666667 0.904762
vt 0.714286 0.000000
vt 0.714286 0.047619
vt 0.714286 0.095238
vt 0.714286 0.142857
vt 0.714286 0.190476
vt 0.714286 0.238095
vt 0.714286 0.285714
vt 0.714286 0.333333
vt 0.714286 0.380952
vt 0.714286 0.428571
vt 0.714286 0.476190
vt 0.714286 0.523810
vt 0.714286 0.571429
vt 0.714286 0.619048
vt 0.714286 0.666667
vt 0.714286 0.714286
vt 0.714286 0.761905
vt 0.714286 0.809524
vt 0.714286 0.857143
vt 0.714286 0.904762
vt 0.761905 0.000000
vt 0.761905 0.047619
vt 0.761905 0.095238
vt 0.761905 0.142857
vt 0.761905 0.190476
vt 0.761905 0.238095
vt 0.761905 0.285714
vt 0.761905 0.333333
vt 0.761905 0.380952
vt 0.761905 0.428571
vt 0.761905 0.476190
vt 0.761905 0.523810
vt 0.761905 0.571429
vt 0.761905 0.619048
vt 0.761905 0.666667
vt 0.761905 0.714286
vt 0.761905 0.761905
vt 0.761905 0.809524
vt 0.761905 0.857143
vt 0.761905 0.904762
vt 0.809524 0.000000
vt 0.809524 0.047619
vt 0.809524 0.095238
vt 0.809524 0.142857
vt 0.809524 0.190476
vt 0.809524 0.238095
vt 0.809524 0.285714
vt 0.809524 0.333333
vt 0.809524 0.380952
vt 0.809524 0.428571
vt 0.809524 0.476190
vt 0.809524 0.523810
vt 0.809524 0.571429
vt 0.809524 0.619048
vt 0.809524 0.666667
vt 0.809524 0.714286
vt 0.809524 0.761905
vt 0.809524 0.809524
vt 0.809524 0.857143
vt 0.809524 0.904762
vt 0.857143 0.000000
vt 0.857143 0.047619
vt 0.857143 0.095238
vt 0.857143 0.142857
vt 0.857143 0.190476
vt 0.857143 0.238095
vt 0.857143 0.285714
vt 0.857143 0.333333
vt 0.857143 0.380952
vt 0.857143 0.428571
vt 0.857143 0.476190
vt 0.857143 0.523810
vt 0.857143 0.571429
vt 0.857143 0.619048
vt 0.857143 0.666667
vt 0.857143 0.714286
vt 0.857143 0.761905
vt 0.857143 0.809524
vt 0.857143 0.857143
vt 0.857143 0.904762
vt 0.904762 0.000000
vt 0.904762 0.047619
vt 0.904762 0.095238
vt 0.904762 0.142857
vt 0.904762 0.190476
vt 0.904762 0.238095
vt 0.904762 0.285714
vt 0.904762 0.333333
vt 0.904762 0.380952
vt 0.904762 0.428571
vt 0.904762 0.476190
vt 0.904762 0.523810
vt 0.904762 0.571429
vt 0.904762 0.619048
vt 0.904762 0.666667
vt 0.904762 0.714286
vt 0.904762 0.761905
vt 0.904762 0.809524
vt 0.904762 0.857143
vt 0.904762 0.904762
vt 0.952381 0.000000
vt 0.952381 0.047619
vt 0.952381 0.095238
vt 0.952381 0.142857
vt 0.952381 0.190476
vt 0.952381 0.238095
vt 0.952381 0.285714
vt 0.952381 0.333333
vt 0.952381 0.380952
vt 0.952381 0.428571
vt 0.952381 0.476190
vt 0.952381 0.523810
vt 0.952381 0.571429
vt 0.952381 0.619048
vt 0.952381 0.666667
vt 0.952381 0.714286
vt 0.952381 0.761905
vt 0.952381 0.809524
vt 0.952381 0.857143
vt 0.952381 0.904762
vt 1.000000 0.000000
vt 1.000000 0.047619
vt 1.000000 0.095238
vt 1.000000 0.142857
vt 1.000000 0.190476
vt 1.000000 0.238095
vt 1.000000 0.285714
vt 1.000000 0.333333
vt 1.000000 0.380952
vt 1.000000 0.428571
vt 1.000000 0.476190
vt 1.000000 0.523810
vt 1.000000 0.571429
vt 1.000000 0.619048
vt 1.000000 0.666667
vt 1.000000 0.714286
vt 1.000000 0.761905
vt 1.000000 0.809524
vt 1.000000 0.857143
vt 1.000000 0.904762
s 0
f 484/1/1 64/2/1 4/3/1 65/4/1
f 5/5/2 104/6/2 84/7/2 3/8/2
f 104/6/3 124/9/3 83/10/3 84/7/3
f 124/9/4 144/11/4 82/12/4 83/10/4
f 144/11/5 164/13/5 81/14/5 82/12/5
f 164/13/6 184/15/6 80/16/6 81/14/6
f 184/15/7 204/17/7 79/18/7 80/16/7
f 204/17/8 224/19/8 78/20/8 79/18/8
f 224/19/9 244/21/9 77/22/9 78/20/9
f 244/21/10 264/23/10 76/24/10 77/22/10
f 264/23/11 284/25/11 75/26/11 76/24/11
f 284/25/12 304/27/12 74/28/12 75/26/12
f 304/27/13 324/29/13 73/30/13 74/28/13
f 324/29/14 344/31/14 72/32/14 73/30/14
f 344/31/15 364/33/15 71/34/15 72/32/15
f 364/33/16 384/35/16 70/36/16 71/34/16
f 384/35/17 404/37/17 69/38/17 70/36/17
f 404/37/18 424/39/18 68/40/18 69/38/18
f 424/39/19 444/41/19 67/42/19 68/40/19
f 444/41/20 464/43/20 66/44/20 67/42/20
f 464/43/21 484/1/21 65/4/21 66/44/21
f 1/45/2 25/46/2 85/47/2 24/48/2
f 24/48/2 85/47/2 86/49/2 23/50/2
f 23/50/2 86/49/2 87/51/2 22/52/2
f 22/52/2 87/51/2 88/53/2 21/54/2
f 21/54/2 88/53/2 89/55/2 20/56/2
f 20/56/2 89/55/2 90/57/2 19/58/2
f 19/58/2 90/57/2 91/59/2 18/60/2
f 18/60/2 91/59/2 92/61/2 17/62/2
f 17/62/2 92/61/2 93/63/2 16/64/2
f 16/64/2 93/63/2 94/65/2 15/66/2
f 15/66/2 94/65/2 95/67/2 14/68/2
f 14/68/2 95/67/2 96/69/2 13/70/2
f 13/70/2 96/69/2 97/71/2 12/72/2
f 12/72/2 97/71/2 98/73/2 11/74/2
f 11/74/2 98/73/2 99/75/2 10/76/2
f 10/76/2 99/75/2 100/77/2 9/78/2
f 9/78/2 100/77/2 101/79/2 8/80/2
f 8/80/2 101/79/2 102/81/2 7/82/2
f 7/82/2 102/81/2 103/83/2 6/84/2
f 6/84/2 103/83/2 104/6/2 5/5/2
f 25/46/3 26/85/3 105/86/3 85/47/3
f 85/47/3 105/86/3 106/87/3 86/49/3
f 86/49/3 106/87/3 107/88/3 87/51/3
f 87/51/3 107/88/3 108/89/3 88/53/3
f 88/53/3 108/89/3 109/90/3 89/55/3
f 89/55/3 109/90/3 110/91/3 90/57/3
f 90/57/3 110/91/3 111/92/3 91/59/3
f 91/59/3 111/92/3 112/93/3 92/61/3
f 92/61/3 112/93/3 113/94/3 93/63/3
f 93/63/3 113/94/3 114/95/3 94/65/3
f 94/65/3 114/95/3 115/96/3 95/67/3
f 95/67/3 115/96/3 116/97/3 96/69/3
f 96/69/3 116/97/3 117/98/3 97/71/3
f 97/71/3 117/98/3 118/99/3 98/73/3
f 98/73/3 118/99/3 119/100/3 99/75/3
f 99/75/3 119/100/3 120/101/3 100/77/3
f 100/77/3 120/101/3 121/102/3 101/79/3
f 101/79/3 121/102/3 122/103/3 102/81/3
f 102/81/3 122/103/3 123/104/3 103/83/3
f 103/83/3 123/104/3 124/9/3 104/6/3
f 26/85/4 27/105/4 125/106/4 105/86/4
f 105/86/4 125/106/4 126/107/4 106/87/4
f 106/87/4 126/107/4 127/108/4 107/88/4
f 107/88/4 127/108/4 128/109/4 108/89/4
f 108/89/4 128/109/4 129/110/4 109/90/4
f 109/90/4 129/110/4 130/111/4 110/91/4
f 110/91/4 130/111/4 131/112/4 111/92/4
f 111/92/4 131/112/4 132/113/4 112/93/4
f 112/93/4 132/113/4 133/114/4 113/94/4
f 113/94/4 133/114/4 134/115/4 114/95/4
f 114/95/4 134/115/4 135/116/4 115/96/4
f 115/96/4 135/116/4 136/117/4 116/97/4
f 116/97/4 136/117/4 137/118/4 117/98/4
f 117/98/4 137/118/4 138/119/4 118/99/4
f 118/99/4 138/119/4 139/120/4 119/100/4
f 119/100/4 139/120/4 140/121/4 120/101/4
f 120/101/4 140/121/4 141/122/4 121/102/4
f 121/102/4 141/122/4 142/123/4 122/103/4
f 122/103/4 142/123/4 143/124/4 123/104/4
f 123/104/4 143/124/4 144/11/4 124/9/4
f 27/105/5 28/125/5 145/126/5 125/106/5
f 125/106/5 145/126/5 146/127/5 126/107/5
f 126/107/5 146/127/5 147/128/5 127/108/5
f 127/108/5 147/128/5 148/129/5 128/109/5
f 128/109/5 148/129/5 149/130/5 129/110/5
f 129/110/5 149/130/5 150/131/5 130/111/5
f 130/111/5 150/131/5 151/132/5 131/112/5
f 131/112/5 151/132/5 152/133/5 132/113/5
f 132/113/5 152/133/5 153/134/5 133/114/5
f 133/114/5 153/134/5 154/135/5 134/115/5
f 134/115/5 154/135/5 155/136/5 135/116/5
f 135/116/5 155/136/5 156/137/5 136/117/5
f 136/117/5 156/137/5 157/138/5 137/118/5
f 137/118/5 157/138/5 158/139/5 138/119/5
f 138/119/5 158/139/5 159/140/5 139/120/5
f 139/120/5 159/140/5 160/141/5 140/121/5
f 140/121/5 160/141/5 161/142/5 141/122/5
f 141/122/5 161/142/5 162/143/5 142/123/5
f 142/123/5 162/143/5 163/144/5 143/124/5
f 143/124/5 163/144/5 164/13/5 144/11/5
f 28/125/6 29/145/6 165/146/6 145/126/6
f 145/126/6 165/146/6 166/147/6 146/127/6
f 146/127/6 166/147/6 167/148/6 147/128/6
f 147/128/6 167/148/6 168/149/6 148/129/6
f 148/129/6 168/149/6 169/150/6 149/130/6
f 149/130/6 169/150/6 170/151/6 150/131/6
f 150/131/6 170/151/6 171/152/6 151/132/6
f 151/132/6 171/152/6 172/153/6 152/133/6
f 152/133/6 172/153/6 173/154/6 153/134/6
f 153/134/6 173/154/6 174/155/6 154/135/6
f 154/135/6 174/155/6 175/156/6 155/136/6
f 155/136/6 175/156/6 176/157/6 156/137/6
f 156/137/6 176/157/6 177/158/6 157/138/6
f 157/138/6 177/158/6 178/159/6 158/139/6
f 158/139/6 178/159/6 179/160/6 159/140/6
f 159/140/6 179/160/6 180/161/6 160/141/6
f 160/141/6 180/161/6 181/162/6 161/142/6
f 161/142/6 181/162/6 182/163/6 162/143/6
f 162/143/6 182/163/6 183/164/6 163/144/6
f 163/144/6 183/164/6 184/15/6 164/13/6
f 29/145/7 30/165/7 185/166/7 165/146/7
f 165/146/7 185/166/7 186/167/7 166/147/7
f 166/147/7 186/167/7 187/168/7 167/148/7
f 167/148/7 187/168/7 188/169/7 168/149/7
f 168/149/7 188/169/7 189/170/7 169/150/7
f 169/150/7 189/170/7 190/171/7 170/151/7
f 170/151/7 190/171/7 191/172/7 171/152/7
f 171/152/7 191/172/7 192/173/7 172/153/7
f 172/153/7 192/173/7 193/174/7 173/154/7
f 173/154/7 193/174/7 194/175/7 174/155/7
f 174/155/7 194/175/7 195/176/7 175/156/7
f 175/156/7 195/176/7 196/177/7 176/157/7
f 176/157/7 196/177/7 197/178/7 177/158/7
f 177/158/7 197/178/7 198/179/7 178/159/7
f 178/159/7 198/179/7 199/180/7 179/160/7
f 179/160/7 199/180/7 200/181/7 180/161/7
f 180/161/7 200/181/7 201/182/7 181/162/7
f 181/162/7 201/182/7 202/183/7 182/163/7
f 182/163/7 202/183/7 203/184/7 183/164/7
f 183/164/7 203/184/7 204/17/7 184/15/7
f 30/165/8 31/185/8 205/186/8 185/166/8
f 185/166/8 205/186/8 206/187/8 186/167/8
f 186/167/8 206/187/8 207/188/8 187/168/8
f 187/168/8 207/188/8 208/189/8 188/169/8
f 188/169/8 208/189/8 209/190/8 189/170/8
f 189/170/8 209/190/8 210/191/8 190/171/8
f 190/171/8 210/191/8 211/192/8 191/172/8
f 191/172/8 211/192/8 212/193/8 192/173/8
f 192/173/8 212/193/8 213/194/8 193/174/8
f 193/174/8 213/194/8 214/195/8 194/175/8
f 194/175/8 214/195/8 215/196/8 195/176/8
f 195/176/8 215/196/8 216/197/8 196/177/8
f 196/177/8 216/197/8 217/198/8 197/178/8
f 197/178/8 217/198/8 218/199/8 198/179/8
f 198/179/8 218/199/8 219/200/8 199/180/8
f 199/180/8 219/200/8 220/201/8 200/181/8
f 200/181/8 220/201/8 221/202/8 201/182/8
f 201/182/8 221/202/8 222/203/8 202/183/8
f 202/183/8 222/203/8 223/204/8 203/184/8
f 203/184/8 223/204/8 224/19/8 204/17/8
f 31/185/9 32/205/9 225/206/9 205/186/9
f 205/186/9 225/206/9 226/207/9 206/187/9
f 206/187/9 226/207/9 227/208/9 207/188/9
f 207/188/9 227/208/9 228/209/9 208/189/9
f 208/189/9 228/209/9 229/210/9 209/190/9
f 209/190/9 229/210/9 230/211/9 210/191/9
f 210/191/9 230/211/9 231/212/9 211/192/9
f 211/192/9 231/212/9 232/213/9 212/193/9
f 212/193/9 232/213/9 233/214/9 213/194/9
f 213/194/9 233/214/9 234/215/9 214/195/9
f 214/195/9 234/215/9 235/216/9 215/196/9
f 215/196/9 235/216/9 236/217/9 216/197/9
f 216/197/9 236/217/9 237/218/9 217/198/9
f 217/198/9 237/218/9 238/219/9 218/199/9
f 218/199/9 238/219/9 239/220/9 219/200/9
f 219/200/9 239/220/9 240/221/9 220/201/9
f 220/201/9 240/221/9 241/222/9 221/202/9
f 221/202/9 241/222/9 242/223/9 222/203/9
f 222/203/9 242/223/9 243/224/9 223/204/9
f 223/204/9 243/224/9 244/21/9 224/19/9
f 32/205/10 33/225/10 245/226/10 225/206/10
f 225/206/10 245/226/10 246/227/10 226/207/10
f 226/207/10 246/227/10 247/228/10 227/208/10
f 227/208/10 247/228/10 248/229/10 228/209/10
f 228/209/10 248/229/10 249/230/10 229/210/10
f 229/210/10 249/230/10 250/231/10 230/211/10
f 230/211/10 250/231/10 251/232/10 231/212/10
f 231/212/10 251/232/10 252/233/10 232/213/10
f 232/213/10 252/233/10 253/234/10 233/214/10
f 233/214/10 253/234/10 254/235/10 234/215/10
f 234/215/10 254/235/10 255/236/10 235/216/10
f 235/216/10 255/236/10 256/237/10 236/217/10
f 236/217/10 256/237/10 257/238/10 237/218/10
f 237/218/10 257/238/10 258/239/10 238/219/10
f 238/219/10 258/239/10 259/240/10 239/220/10
f 239/220/10 259/240/10 260/241/10 240/221/10
f 240/221/10 260/241/10 261/242/10 241/222/10
f 241/222/10 261/242/10 262/243/10 242/223/10
f 242/223/10 262/243/10 263/244/10 243/224/10
f 243/224/10 263/244/10 264/23/10 244/21/10
f 33/225/11 34/245/11 265/246/11 245/226/11
f 245/226/11 265/246/11 266/247/11 246/227/11
f 246/227/11 266/247/11 267/248/11 247/228/11
f 247/228/11 267/248/11 268/249/11 248/229/11
f 248/229/11 268/249/11 269/250/11 249/230/11
f 249/230/11 269/250/11 270/251/11 250/231/11
f 250/231/11 270/251/11 271/252/11 251/232/11
f 251/232/11 271/252/11 272/253/11 252/233/11
f 252/233/11 272/253/11 273/254/11 253/234/11
f 253/234/11 273/254/11 274/255/11 254/235/11
f 254/235/11 274/255/11 275/256/11 255/236/11
f 255/236/11 275/256/11 276/257/11 256/237/11
f 256/237/11 276/257/11 277/258/11 257/238/11
f 257/238/11 277/258/11 278/259/11 258/239/11
f 258/239/11 278/259/11 279/260/11 259/240/11
f 259/240/11 279/260/11 280/261/11 260/241/11
f 260/241/11 280/261/11 281/262/11 261/242/11
f 261/242/11 281/262/11 282/263/11 262/243/11
f 262/243/11 282/263/11 283/264/11 263/244/11
f 263/244/11 283/264/11 284/25/11 264/23/11
f 34/245/12 35/265/12 285/266/12 265/246/12
f 265/246/12 285/266/12 286/267/12 266/247/12
f 266/247/12 286/267/12 287/268/12 267/248/12
f 267/248/12 287/268/12 288/269/12 268/249/12
f 268/249/12 288/269/12 289/270/12 269/250/12
f 269/250/12 289/270/12 290/271/12 270/251/12
f 270/251/12 290/271/12 291/272/12 271/252/12
f 271/252/12 291/272/12 292/273/12 272/253/12
f 272/253/12 292/273/12 293/274/12 273/254/12
f 273/254/12 293/274/12 294/275/12 274/255/12
f 274/255/12 294/275/12 295/276/12 275/256/12
f 275/256/12 295/276/12 296/277/12 276/257/12
f 276/257/12 296/277/12 297/278/12 277/258/12
f 277/258/12 297/278/12 298/279/12 278/259/12
f 278/259/12 298/279/12 299/280/12 279/260/12
f 279/260/12 299/280/12 300/281/12 280/261/12
f 280/261/12 300/281/12 301/282/12 281/262/12
f 281/262/12 301/282/12 302/283/12 282/263/12
f 282/263/12 302/283/12 303/284/12 283/264/12
f 283/264/12 303/284/12 304/27/12 284/25/12
f 35/265/13 36/285/13 305/286/13 285/266/13
f 285/266/13 305/286/13 306/287/13 286/267/13
f 286/267/13 306/287/13 307/288/13 287/268/13
f 287/268/13 307/288/13 308/289/13 288/269/13
f 288/269/13 308/289/13 309/290/13 289/270/13
f 289/270/13 309/290/13 310/291/13 290/271/13
f 290/271/13 310/291/13 311/292/13 291/272/13
f 291/272/13 311/292/13 312/293/13 292/273/13
f 292/273/13 312/293/13 313/294/13 293/274/13
f 293/274/13 313/294/13 314/295/13 294/275/13
f 294/275/13 314/295/13 315/296/13 295/276/13
f 295/276/13 315/296/13 316/297/13 296/277/13
f 296/277/13 316/297/13 317/298/13 297/278/13
f 297/278/13 317/298/13 318/299/13 298/279/13
f 298/279/13 318/299/13 319/300/13 299/280/13
f 299/280/13 319/300/13 320/301/13 300/281/13
f 300/281/13 320/301/13 321/302/13 301/282/13
f 301/282/13 321/302/13 322/303/13 302/283/13
f 302/283/13 322/303/13 323/304/13 303/284/13
f 303/284/13 323/304/13 324/29/13 304/27/13
f 36/285/14 37/305/14 325/306/14 305/286/14
f 305/286/14 325/306/14 326/307/14 306/287/14
f 306/287/14 326/307/14 327/308/14 307/288/14
f 307/288/14 327/308/14 328/309/14 308/289/14
f 308/289/14 328/309/14 329/310/14 309/290/14
f 309/290/14 329/310/14 330/311/14 310/291/14
f 310/291/14 330/311/14 331/312/14 311/292/14
f 311/292/14 331/312/14 332/313/14 312/293/14
f 312/293/14 332/313/14 333/314/14 313/294/14
f 313/294/14 333/314/14 334/315/14 314/295/14
f 314/295/14 334/315/14 335/316/14 315/296/14
f 315/296/14 335/316/14 336/317/14 316/297/14
f 316/297/14 336/317/14 337/318/14 317/298/14
f 317/298/14 337/318/14 338/319/14 318/299/14
f 318/299/14 338/319/14 339/320/14 319/300/14
f 319/300/14 339/320/14 340/321/14 320/301/14
f 320/301/14 340/321/14 341/322/14 321/302/14
f 321/302/14 341/322/14 342/323/14 322/303/14
f 322/303/14 342/323/14 343/324/14 323/304/14
f 323/304/14 343/324/14 344/31/14 324/29/14
f 37/305/15 38/325/15 345/326/15 325/306/15
f 325/306/15 345/326/15 346/327/15 326/307/15
f 326/307/15 346/327/15 347/328/15 327/308/15
f 327/308/15 347/328/15 348/329/15 328/309/15
f 328/309/15 348/329/15 349/330/15 329/310/15
f 329/310/15 349/330/15 350/331/15 330/311/15
f 330/311/15 350/331/15 351/332/15 331/312/15
f 331/312/15 351/332/15 352/333/15 332/313/15
f 332/313/15 352/333/15 353/334/15 333/314/15
f 333/314/15 353/334/15 354/335/15 334/315/15
f 334/315/15 354/335/15 355/336/15 335/316/15
f 335/316/15 355/336/15 356/337/15 336/317/15
f 336/317/15 356/337/15 357/338/15 337/318/15
f 337/318/15 357/338/15 358/339/15 338/319/15
f 338/319/15 358/339/15 359/340/15 339/320/15
f 339/320/15 359/340/15 360/341/15 340/321/15
f 340/321/15 360/341/15 361/342/15 341/322/15
f 341/322/15 361/342/15 362/343/15 342/323/15
f 342/323/15 362/343/15 363/344/15 343/324/15
f 343/324/15 363/344/15 364/33/15 344/31/15
f 38/325/16 39/345/16 365/346/16 345/326/16
f 345/326/16 365/346/16 366/347/16 346/327/16
f 346/327/16 366/347/16 367/348/16 347/328/16
f 347/328/16 367/348/16 368/349/16 348/329/16
f 348/329/16 368/349/16 369/350/16 349/330/16
f 349/330/16 369/350/16 370/351/16 350/331/16
f 350/331/16 370/351/16 371/352/16 351/332/16
f 351/332/16 371/352/16 372/353/16 352/333/16
f 352/333/16 372/353/16 373/354/16 353/334/16
f 353/334/16 373/354/16 374/355/16 354/335/16
f 354/335/16 374/355/16 375/356/16 355/336/16
f 355/336/16 375/356/16 376/357/16 356/337/16
f 356/337/16 376/357/16 377/358/16 357/338/16
f 357/338/16 377/358/16 378/359/16 358/339/16
f 358/339/16 378/359/16 379/360/16 359/340/16
f 359/340/16 379/360/16 380/361/16 360/341/16
f 360/341/16 380/361/16 381/362/16 361/342/16
f 361/342/16 381/362/16 382/363/16 362/343/16
f 362/343/16 382/363/16 383/364/16 363/344/16
f 363/344/16 383/364/16 384/35/16 364/33/16
f 39/345/17 40/365/17 385/366/17 365/346/17
f 365/346/17 385/366/17 386/367/17 366/347/17
f 366/347/17 386/367/17 387/368/17 367/348/17
f 367/348/17 387/368/17 388/369/17 368/349/17
f 368/349/17 388/369/17 389/370/17 369/350/17
f 369/350/17 389/370/17 390/371/17 370/351/17
f 370/351/17 390/371/17 391/372/17 371/352/17
f 371/352/17 391/372/17 392/373/17 372/353/17
f 372/353/17 392/373/17 393/374/17 373/354/17
f 373/354/17 393/374/17 394/375/17 374/355/17
f 374/355/17 394/375/17 395/376/17 375/356/17
f 375/356/17 395/376/17 396/377/17 376/357/17
f 376/357/17 396/377/17 397/378/17 377/358/17
f 377/358/17 397/378/17 398/379/17 378/359/17
f 378/359/17 398/379/17 399/380/17 379/360/17
f 379/360/17 399/380/17 400/381/17 380/361/17
f 380/361/17 400/381/17 401/382/17 381/362/17
f 381/362/17 401/382/17 402/383/17 382/363/17
f 382/363/17 402/383/17 403/384/17 383/364/17
f 383/364/17 403/384/17 404/37/17 384/35/17
f 40/365/18 41/385/18 405/386/18 385/366/18
f 385/366/18 405/386/18 406/387/18 386/367/18
f 386/367/18 406/387/18 407/388/18 387/368/18
f 387/368/18 407/388/18 408/389/18 388/369/18
f 388/369/18 408/389/18 409/390/18 389/370/18
f 389/370/18 409/390/18 410/391/18 390/371/18
f 390/371/18 410/391/18 411/392/18 391/372/18
f 391/372/18 411/392/18 412/393/18 392/373/18
f 392/373/18 412/393/18 413/394/18 393/374/18
f 393/374/18 413/394/18 414/395/18 394/375/18
f 394/375/18 414/395/18 415/396/18 395/376/18
f 395/376/18 415/396/18 416/397/18 396/377/18
f 396/377/18 416/397/18 417/398/18 397/378/18
f 397/378/18 417/398/18 418/399/18 398/379/18
f 398/379/18 418/399/18 419/400/18 399/380/18
f 399/380/18 419/400/18 420/401/18 400/381/18
f 400/381/18 420/401/18 421/402/18 401/382/18
f 401/382/18 421/402/18 422/403/18 402/383/18
f 402/383/18 422/403/18 423/404/18 403/384/18
f 403/384/18 423/404/18 424/39/18 404/37/18
f 41/385/19 42/405/19 425/406/19 405/386/19
f 405/386/19 425/406/19 426/407/19 406/387/19
f 406/387/19 426/407/19 427/408/19 407/388/19
f 407/388/19 427/408/19 428/409/19 408/389/19
f 408/389/19 428/409/19 429/410/19 409/390/19
f 409/390/19 429/410/19 430/411/19 410/391/19
f 410/391/19 430/411/19 431/412/19 411/392/19
f 411/392/19 431/412/19 432/413/19 412/393/19
f 412/393/19 432/413/19 433/414/19 413/394/19
f 413/394/19 433/414/19 434/415/19 414/395/19
f 414/395/19 434/415/19 435/416/19 415/396/19
f 415/396/19 435/416/19 436/417/19 416/397/19
f 416/397/19 436/417/19 437/418/19 417/398/19
f 417/398/19 437/418/19 438/419/19 418/399/19
f 418/399/19 438/419/19 439/420/19 419/400/19
f 419/400/19 439/420/19 440/421/19 420/401/19
f 420/401/19 440/421/19 441/422/19 421/402/19
f 421/402/19 441/422/19 442/423/19 422/403/19
f 422/403/19 442/423/19 443/424/19 423/404/19
f 423/404/19 443/424/19 444/41/19 424/39/19
f 42/405/20 43/425/20 445/426/20 425/406/20
f 425/406/20 445/426/20 446/427/20 426/407/20
f 426/407/20 446/427/20 447/428/20 427/408/20
f 427/408/20 447/428/20 448/429/20 428/409/20
f 428/409/20 448/429/20 449/430/20 429/410/20
f 429/410/20 449/430/20 450/431/20 430/411/20
f 430/411/20 450/431/20 451/432/20 431/412/20
f 431/412/20 451/432/20 452/433/20 432/413/20
f 432/413/20 452/433/20 453/434/20 433/414/20
f 433/414/20 453/434/20 454/435/20 434/415/20
f 434/415/20 454/435/20 455/436/20 435/416/20
f 435/416/20 455/436/20 456/437/20 436/417/20
f 436/417/20 456/437/20 457/438/20 437/418/20
f 437/418/20 457/438/20 458/439/20 438/419/20
f 438/419/20 458/439/20 459/440/20 439/420/20
f 439/420/20 459/440/20 460/441/20 440/421/20
f 440/421/20 460/441/20 461/442/20 441/422/20
f 441/422/20 461/442/20 462/443/20 442/423/20
f 442/423/20 462/443/20 463/444/20 443/424/20
f 443/424/20 463/444/20 464/43/20 444/41/20
f 43/425/21 44/445/21 465/446/21 445/426/21
f 445/426/21 465/446/21 466/447/21 446/427/21
f 446/427/21 466/447/21 467/448/21 447/428/21
f 447/428/21 467/448/21 468/449/21 448/429/21
f 448/429/21 468/449/21 469/450/21 449/430/21
f 449/430/21 469/450/21 470/451/21 450/431/21
f 450/431/21 470/451/21 471/452/21 451/432/21
f 451/432/21 471/452/21 472/453/21 452/433/21
f 452/433/21 472/453/21 473/454/21 453/434/21
f 453/434/21 473/454/21 474/455/21 454/435/21
f 454/435/21 474/455/21 475/456/21 455/436/21
f 455/436/21 475/456/21 476/457/21 456/437/21
f 456/437/21 476/457/21 477/458/21 457/438/21
f 457/438/21 477/458/21 478/459/21 458/439/21
f 458/439/21 478/459/21 479/460/21 459/440/21
f 459/440/21 479/460/21 480/461/21 460/441/21
f 460/441/21 480/461/21 481/462/21 461/442/21
f 461/442/21 481/462/21 482/463/21 462/443/21
f 462/443/21 482/463/21 483/464/21 463/444/21
f 463/444/21 483/464/21 484/1/21 464/43/21
f 44/445/1 2/465/1 45/466/1 465/446/1
f 465/446/1 45/466/1 46/467/1 466/447/1
f 466/447/1 46/467/1 47/468/1 467/448/1
f 467/448/1 47/468/1 48/469/1 468/449/1
f 468/449/1 48/469/1 49/470/1 469/450/1
f 469/450/1 49/470/1 50/471/1 470/451/1
f 470/451/1 50/471/1 51/472/1 471/452/1
f 471/452/1 51/472/1 52/473/1 472/453/1
f 472/453/1 52/473/1 53/474/1 473/454/1
f 473/454/1 53/474/1 54/475/1 474/455/1
f 474/455/1 54/475/1 55/476/1 475/456/1
f 475/456/1 55/476/1 56/477/1 476/457/1
f 476/457/1 56/477/1 57/478/1 477/458/1
f 477/458/1 57/478/1 58/479/1 478/459/1
f 478/459/1 58/479/1 59/480/1 479/460/1
f 479/460/1 59/480/1 60/481/1 480/461/1
f 480/461/1 60/481/1 61/482/1 481/462/1
f 481/462/1 61/482/1 62/483/1 482/463/1
f 482/463/1 62/483/1 63/484/1 483/464/1
f 483/464/1 63/484/1 64/2/1 484/1/1
